<svg width="1920" height="732" viewBox="0 0 1920 732" fill="none" xmlns="http://www.w3.org/2000/svg">
<g clip-path="url(#clip0_42_743)">
<rect width="1920" height="732" fill="#F9F8FD"/>
<g filter="url(#filter0_f_42_743)">
<path fill-rule="evenodd" clip-rule="evenodd" d="M1910.19 697.223C1888.1 717.662 1854.43 717.301 1824.59 712.719C1801.19 709.126 1786.4 689.4 1767.36 675.288C1745.56 659.128 1708.56 652.521 1706.91 625.494C1705.26 598.432 1743.7 589.977 1760.89 569.082C1778.86 547.235 1781.09 511.01 1808.09 502.478C1837.78 493.096 1870.68 506.956 1894.83 526.761C1919.51 546.997 1934.45 576.702 1937.31 608.422C1940.2 640.516 1933.79 675.386 1910.19 697.223Z" fill="#E14594" fill-opacity="0.3"/>
</g>
<g filter="url(#filter1_f_42_743)">
<path fill-rule="evenodd" clip-rule="evenodd" d="M1703.58 346.18C1687.17 359.431 1665.71 358.865 1644.9 362.179C1620.87 366.007 1594.07 381.536 1574.85 366.686C1555.48 351.725 1561.46 321.865 1560.98 297.359C1560.54 274.887 1557.85 250.76 1572.23 233.445C1586.76 215.945 1610.94 212.716 1633.5 210.008C1657.45 207.131 1682.64 204.36 1702.64 217.786C1724.71 232.598 1742.44 256.638 1742.64 283.257C1742.82 308.891 1723.55 330.057 1703.58 346.18Z" fill="#E14594" fill-opacity="0.3"/>
</g>
<g filter="url(#filter2_f_42_743)">
<path fill-rule="evenodd" clip-rule="evenodd" d="M1944.2 486.258C1921.11 510.183 1882.88 491.405 1849.7 493.357C1807.7 495.827 1756.05 531.769 1729.87 498.864C1703.77 466.064 1753.04 424.657 1762.51 383.795C1772.83 339.265 1750.73 284.427 1786.24 255.637C1829.04 220.939 1899.63 203.267 1942.31 238.044C1983.45 271.567 1949.78 336.138 1950.19 389.231C1950.45 423.32 1967.88 461.719 1944.2 486.258Z" fill="#7045AF" fill-opacity="0.3"/>
</g>
<g filter="url(#filter3_f_42_743)">
<path fill-rule="evenodd" clip-rule="evenodd" d="M-26.428 186.699C-49.8734 167.466 -55.0716 135.623 -55.5473 107.068C-55.9203 84.6796 -39.2427 69.1225 -28.7053 50.008C-16.6378 28.1179 -16.3316 -7.36547 9.5877 -11.0846C35.5393 -14.8083 50.0659 20.8301 73.1451 35.3937C97.2756 50.6208 132.745 49.8273 145.463 74.6567C159.446 101.957 151.435 134.14 136.223 158.546C120.68 183.482 94.3563 199.973 64.0897 205.212C33.4667 210.512 -1.37932 207.247 -26.428 186.699Z" fill="#E14594" fill-opacity="0.3"/>
</g>
<g filter="url(#filter4_f_42_743)">
<path fill-rule="evenodd" clip-rule="evenodd" d="M-56.3974 313.984C-71.9416 299.542 -74.9289 279.221 -81.569 259.829C-89.2366 237.436 -108.7 213.363 -97.4774 194.012C-86.1711 174.516 -56.2505 177.778 -32.5828 175.361C-10.8796 173.145 12.0575 168.677 31.2036 180.871C50.5562 193.196 57.6693 215.786 64.0101 236.878C70.7438 259.278 77.579 282.85 67.8649 302.822C57.1477 324.857 36.773 343.532 11.0112 345.846C-13.7982 348.074 -37.4851 331.556 -56.3974 313.984Z" fill="#459FE1" fill-opacity="0.3"/>
</g>
<g filter="url(#filter5_f_42_743)">
<path fill-rule="evenodd" clip-rule="evenodd" d="M132.399 460.163C103.164 471.842 73.8811 440.71 42.4953 429.466C2.7666 415.233 -56.8712 426.167 -70.3593 387.522C-83.8043 349.001 -24.5773 332.418 -2.41541 300.793C21.7356 266.33 19.2133 210.318 61.5562 199.278C112.59 185.972 183.794 198.209 211.953 244.9C239.098 289.908 186.746 332.593 169.729 378.638C158.803 408.201 162.384 448.184 132.399 460.163Z" fill="#D8CBE9"/>
</g>
<g filter="url(#filter6_f_42_743)">
<path fill-rule="evenodd" clip-rule="evenodd" d="M226.984 254.957C194.503 255.813 177.347 217.715 151.016 197.004C117.686 170.786 56.0561 160.808 56.881 121.153C57.7034 81.6257 120.964 86.3284 153.763 64.9676C189.506 41.6896 207.177 -10.0974 252.111 -5.99363C306.268 -1.04765 370.769 33.8692 381.251 85.7435C391.355 135.747 325.374 157.082 292.376 193.277C271.189 216.516 260.298 254.079 226.984 254.957Z" fill="#AF45AB" fill-opacity="0.3"/>
</g>
</g>
<defs>
<filter id="filter0_f_42_743" x="1583.86" y="376.476" width="477.1" height="461.804" filterUnits="userSpaceOnUse" color-interpolation-filters="sRGB">
<feFlood flood-opacity="0" result="BackgroundImageFix"/>
<feBlend mode="normal" in="SourceGraphic" in2="BackgroundImageFix" result="shape"/>
<feGaussianBlur stdDeviation="61.5" result="effect1_foregroundBlur_42_743"/>
</filter>
<filter id="filter1_f_42_743" x="1437.47" y="84.631" width="428.168" height="411.361" filterUnits="userSpaceOnUse" color-interpolation-filters="sRGB">
<feFlood flood-opacity="0" result="BackgroundImageFix"/>
<feBlend mode="normal" in="SourceGraphic" in2="BackgroundImageFix" result="shape"/>
<feGaussianBlur stdDeviation="61.5" result="effect1_foregroundBlur_42_743"/>
</filter>
<filter id="filter2_f_42_743" x="1599.33" y="96.1755" width="486.449" height="539.489" filterUnits="userSpaceOnUse" color-interpolation-filters="sRGB">
<feFlood flood-opacity="0" result="BackgroundImageFix"/>
<feBlend mode="normal" in="SourceGraphic" in2="BackgroundImageFix" result="shape"/>
<feGaussianBlur stdDeviation="61.5" result="effect1_foregroundBlur_42_743"/>
</filter>
<filter id="filter3_f_42_743" x="-178.553" y="-134.356" width="454.257" height="464.816" filterUnits="userSpaceOnUse" color-interpolation-filters="sRGB">
<feFlood flood-opacity="0" result="BackgroundImageFix"/>
<feBlend mode="normal" in="SourceGraphic" in2="BackgroundImageFix" result="shape"/>
<feGaussianBlur stdDeviation="61.5" result="effect1_foregroundBlur_42_743"/>
</filter>
<filter id="filter4_f_42_743" x="-223.883" y="49.705" width="419.582" height="419.343" filterUnits="userSpaceOnUse" color-interpolation-filters="sRGB">
<feFlood flood-opacity="0" result="BackgroundImageFix"/>
<feBlend mode="normal" in="SourceGraphic" in2="BackgroundImageFix" result="shape"/>
<feGaussianBlur stdDeviation="61.5" result="effect1_foregroundBlur_42_743"/>
</filter>
<filter id="filter5_f_42_743" x="-195.322" y="71.2273" width="537.942" height="514.514" filterUnits="userSpaceOnUse" color-interpolation-filters="sRGB">
<feFlood flood-opacity="0" result="BackgroundImageFix"/>
<feBlend mode="normal" in="SourceGraphic" in2="BackgroundImageFix" result="shape"/>
<feGaussianBlur stdDeviation="61.5" result="effect1_foregroundBlur_42_743"/>
</filter>
<filter id="filter6_f_42_743" x="-66.1271" y="-129.224" width="571.419" height="507.195" filterUnits="userSpaceOnUse" color-interpolation-filters="sRGB">
<feFlood flood-opacity="0" result="BackgroundImageFix"/>
<feBlend mode="normal" in="SourceGraphic" in2="BackgroundImageFix" result="shape"/>
<feGaussianBlur stdDeviation="61.5" result="effect1_foregroundBlur_42_743"/>
</filter>
<clipPath id="clip0_42_743">
<rect width="1920" height="732" fill="white"/>
</clipPath>
</defs>
</svg>
